<mxfile host="app.diagrams.net" modified="2022-12-27T16:41:12.593Z" agent="5.0 (Windows NT 10.0; Win64; x64) AppleWebKit/537.36 (KHTML, like Gecko) Chrome/108.0.0.0 Safari/537.36" etag="cO--O4xk9jGth4vByJ1U" version="20.7.4" type="github">
  <diagram id="kgpKYQtTHZ0yAKxKKP6v" name="Page-1">
    <mxGraphModel dx="993" dy="622" grid="1" gridSize="10" guides="0" tooltips="1" connect="1" arrows="1" fold="1" page="1" pageScale="1" pageWidth="1169" pageHeight="827" math="0" shadow="0">
      <root>
        <mxCell id="0" />
        <mxCell id="1" parent="0" />
        <mxCell id="e8ArRw_OcwM4HBcJv57Q-3" value="" style="edgeStyle=orthogonalEdgeStyle;rounded=0;orthogonalLoop=1;jettySize=auto;html=1;" parent="1" source="e8ArRw_OcwM4HBcJv57Q-1" target="e8ArRw_OcwM4HBcJv57Q-2" edge="1">
          <mxGeometry relative="1" as="geometry" />
        </mxCell>
        <mxCell id="e8ArRw_OcwM4HBcJv57Q-1" value="Pagina incarca" style="rounded=1;whiteSpace=wrap;html=1;" parent="1" vertex="1">
          <mxGeometry x="10" y="320" width="120" height="60" as="geometry" />
        </mxCell>
        <mxCell id="CppdhaFHmqjqEvkJu7Ff-2" value="" style="edgeStyle=orthogonalEdgeStyle;rounded=0;orthogonalLoop=1;jettySize=auto;html=1;" parent="1" source="e8ArRw_OcwM4HBcJv57Q-2" target="CppdhaFHmqjqEvkJu7Ff-1" edge="1">
          <mxGeometry relative="1" as="geometry" />
        </mxCell>
        <mxCell id="CppdhaFHmqjqEvkJu7Ff-43" value="" style="edgeStyle=orthogonalEdgeStyle;rounded=0;orthogonalLoop=1;jettySize=auto;html=1;" parent="1" source="e8ArRw_OcwM4HBcJv57Q-2" target="e8ArRw_OcwM4HBcJv57Q-4" edge="1">
          <mxGeometry relative="1" as="geometry" />
        </mxCell>
        <mxCell id="e8ArRw_OcwM4HBcJv57Q-2" value="Formular de autentificare - baza de date creata anterior" style="rounded=1;whiteSpace=wrap;html=1;fillColor=#d5e8d4;strokeColor=#82b366;" parent="1" vertex="1">
          <mxGeometry x="160" y="320" width="120" height="60" as="geometry" />
        </mxCell>
        <mxCell id="CppdhaFHmqjqEvkJu7Ff-44" value="" style="edgeStyle=orthogonalEdgeStyle;rounded=0;orthogonalLoop=1;jettySize=auto;html=1;" parent="1" source="e8ArRw_OcwM4HBcJv57Q-4" target="e8ArRw_OcwM4HBcJv57Q-7" edge="1">
          <mxGeometry relative="1" as="geometry" />
        </mxCell>
        <mxCell id="e8ArRw_OcwM4HBcJv57Q-4" value="Se conecteaza&amp;nbsp;" style="whiteSpace=wrap;html=1;rounded=1;fillColor=#fff2cc;strokeColor=#d6b656;" parent="1" vertex="1">
          <mxGeometry x="160" y="200" width="120" height="60" as="geometry" />
        </mxCell>
        <mxCell id="CppdhaFHmqjqEvkJu7Ff-70" value="" style="edgeStyle=orthogonalEdgeStyle;rounded=0;orthogonalLoop=1;jettySize=auto;html=1;" parent="1" source="e8ArRw_OcwM4HBcJv57Q-7" target="CppdhaFHmqjqEvkJu7Ff-69" edge="1">
          <mxGeometry relative="1" as="geometry" />
        </mxCell>
        <mxCell id="CppdhaFHmqjqEvkJu7Ff-78" value="" style="edgeStyle=orthogonalEdgeStyle;rounded=0;orthogonalLoop=1;jettySize=auto;html=1;" parent="1" source="e8ArRw_OcwM4HBcJv57Q-7" target="CppdhaFHmqjqEvkJu7Ff-77" edge="1">
          <mxGeometry relative="1" as="geometry" />
        </mxCell>
        <mxCell id="CppdhaFHmqjqEvkJu7Ff-80" value="" style="edgeStyle=orthogonalEdgeStyle;rounded=0;orthogonalLoop=1;jettySize=auto;html=1;" parent="1" source="e8ArRw_OcwM4HBcJv57Q-7" target="CppdhaFHmqjqEvkJu7Ff-79" edge="1">
          <mxGeometry relative="1" as="geometry" />
        </mxCell>
        <mxCell id="e8ArRw_OcwM4HBcJv57Q-7" value="Apare mesaj de confirmare ca este conectat" style="whiteSpace=wrap;html=1;rounded=1;fillColor=#0050ef;strokeColor=#001DBC;fontColor=#ffffff;" parent="1" vertex="1">
          <mxGeometry x="360" y="200" width="120" height="60" as="geometry" />
        </mxCell>
        <mxCell id="CppdhaFHmqjqEvkJu7Ff-3" style="edgeStyle=orthogonalEdgeStyle;rounded=0;orthogonalLoop=1;jettySize=auto;html=1;entryX=1;entryY=0.5;entryDx=0;entryDy=0;exitX=1;exitY=0.5;exitDx=0;exitDy=0;" parent="1" source="CppdhaFHmqjqEvkJu7Ff-1" target="e8ArRw_OcwM4HBcJv57Q-2" edge="1">
          <mxGeometry relative="1" as="geometry">
            <mxPoint x="350" y="360" as="targetPoint" />
            <mxPoint x="330" y="480" as="sourcePoint" />
            <Array as="points">
              <mxPoint x="310" y="450" />
              <mxPoint x="310" y="350" />
            </Array>
          </mxGeometry>
        </mxCell>
        <mxCell id="CppdhaFHmqjqEvkJu7Ff-1" value="Eroare conectare" style="whiteSpace=wrap;html=1;fillColor=#f8cecc;strokeColor=#b85450;rounded=1;" parent="1" vertex="1">
          <mxGeometry x="160" y="420" width="120" height="60" as="geometry" />
        </mxCell>
        <mxCell id="CppdhaFHmqjqEvkJu7Ff-46" value="" style="edgeStyle=orthogonalEdgeStyle;rounded=0;orthogonalLoop=1;jettySize=auto;html=1;" parent="1" source="CppdhaFHmqjqEvkJu7Ff-24" target="CppdhaFHmqjqEvkJu7Ff-28" edge="1">
          <mxGeometry relative="1" as="geometry" />
        </mxCell>
        <mxCell id="CppdhaFHmqjqEvkJu7Ff-24" value="Formular dinamic&amp;nbsp;&lt;br&gt;pentru propuneri (departamente)" style="whiteSpace=wrap;html=1;fillColor=#d5e8d4;strokeColor=#82b366;rounded=1;" parent="1" vertex="1">
          <mxGeometry x="520" y="20" width="120" height="60" as="geometry" />
        </mxCell>
        <mxCell id="CppdhaFHmqjqEvkJu7Ff-59" value="" style="edgeStyle=orthogonalEdgeStyle;rounded=0;orthogonalLoop=1;jettySize=auto;html=1;" parent="1" source="CppdhaFHmqjqEvkJu7Ff-26" target="CppdhaFHmqjqEvkJu7Ff-58" edge="1">
          <mxGeometry relative="1" as="geometry">
            <Array as="points">
              <mxPoint x="1020" y="130" />
            </Array>
          </mxGeometry>
        </mxCell>
        <mxCell id="CppdhaFHmqjqEvkJu7Ff-26" value="Apare lista de membri ai biserici de unde se pot alege din persoanele prezente" style="whiteSpace=wrap;html=1;fillColor=#e1d5e7;strokeColor=#9673a6;rounded=1;" parent="1" vertex="1">
          <mxGeometry x="680" y="100" width="160" height="60" as="geometry" />
        </mxCell>
        <mxCell id="CppdhaFHmqjqEvkJu7Ff-54" value="" style="edgeStyle=orthogonalEdgeStyle;rounded=0;orthogonalLoop=1;jettySize=auto;html=1;" parent="1" source="CppdhaFHmqjqEvkJu7Ff-28" target="CppdhaFHmqjqEvkJu7Ff-53" edge="1">
          <mxGeometry relative="1" as="geometry" />
        </mxCell>
        <mxCell id="CppdhaFHmqjqEvkJu7Ff-28" value="Apar toate departamentele bisericii si se pot propune persoane din baza de date" style="whiteSpace=wrap;html=1;fillColor=#e1d5e7;strokeColor=#9673a6;rounded=1;" parent="1" vertex="1">
          <mxGeometry x="680" y="20" width="150" height="62" as="geometry" />
        </mxCell>
        <mxCell id="CppdhaFHmqjqEvkJu7Ff-33" style="edgeStyle=orthogonalEdgeStyle;rounded=0;orthogonalLoop=1;jettySize=auto;html=1;" parent="1" source="CppdhaFHmqjqEvkJu7Ff-30" target="CppdhaFHmqjqEvkJu7Ff-26" edge="1">
          <mxGeometry relative="1" as="geometry" />
        </mxCell>
        <mxCell id="CppdhaFHmqjqEvkJu7Ff-30" value="Formular propunere de 3 nume pentru comitetul special" style="whiteSpace=wrap;html=1;fillColor=#d5e8d4;strokeColor=#82b366;rounded=1;" parent="1" vertex="1">
          <mxGeometry x="520" y="100" width="120" height="60" as="geometry" />
        </mxCell>
        <mxCell id="CppdhaFHmqjqEvkJu7Ff-84" style="edgeStyle=orthogonalEdgeStyle;rounded=0;orthogonalLoop=1;jettySize=auto;html=1;" parent="1" source="CppdhaFHmqjqEvkJu7Ff-39" target="CppdhaFHmqjqEvkJu7Ff-73" edge="1">
          <mxGeometry relative="1" as="geometry">
            <Array as="points">
              <mxPoint x="800" y="600" />
            </Array>
          </mxGeometry>
        </mxCell>
        <mxCell id="CppdhaFHmqjqEvkJu7Ff-39" value="Propunere pentru comitetul de numiri prezentata bisericii" style="whiteSpace=wrap;html=1;fillColor=#fff2cc;strokeColor=#d6b656;rounded=1;" parent="1" vertex="1">
          <mxGeometry x="730" y="280" width="120" height="60" as="geometry" />
        </mxCell>
        <mxCell id="BHnLyTxGF9Abz34kXASD-3" style="edgeStyle=orthogonalEdgeStyle;rounded=0;orthogonalLoop=1;jettySize=auto;html=1;" edge="1" parent="1" source="CppdhaFHmqjqEvkJu7Ff-53" target="BHnLyTxGF9Abz34kXASD-1">
          <mxGeometry relative="1" as="geometry">
            <Array as="points">
              <mxPoint x="930" y="350" />
            </Array>
          </mxGeometry>
        </mxCell>
        <mxCell id="CppdhaFHmqjqEvkJu7Ff-53" value="Pt fiecare departament se face ranking din toate propunerile" style="whiteSpace=wrap;html=1;fillColor=#e1d5e7;strokeColor=#9673a6;rounded=1;" parent="1" vertex="1">
          <mxGeometry x="860" y="20" width="120" height="60" as="geometry" />
        </mxCell>
        <mxCell id="CppdhaFHmqjqEvkJu7Ff-65" value="" style="edgeStyle=orthogonalEdgeStyle;rounded=0;orthogonalLoop=1;jettySize=auto;html=1;" parent="1" source="CppdhaFHmqjqEvkJu7Ff-58" target="CppdhaFHmqjqEvkJu7Ff-64" edge="1">
          <mxGeometry relative="1" as="geometry" />
        </mxCell>
        <mxCell id="CppdhaFHmqjqEvkJu7Ff-58" value="Se face rankingul propunerilor si se da timp contestatiilor" style="whiteSpace=wrap;html=1;fillColor=#fff2cc;strokeColor=#d6b656;rounded=1;" parent="1" vertex="1">
          <mxGeometry x="960" y="310" width="120" height="60" as="geometry" />
        </mxCell>
        <mxCell id="CppdhaFHmqjqEvkJu7Ff-86" style="edgeStyle=orthogonalEdgeStyle;rounded=0;orthogonalLoop=1;jettySize=auto;html=1;entryX=1;entryY=0.5;entryDx=0;entryDy=0;" parent="1" source="CppdhaFHmqjqEvkJu7Ff-64" edge="1" target="CppdhaFHmqjqEvkJu7Ff-73">
          <mxGeometry x="0.0212" y="120" relative="1" as="geometry">
            <mxPoint x="710" y="790" as="targetPoint" />
            <Array as="points">
              <mxPoint x="1020" y="660" />
            </Array>
            <mxPoint as="offset" />
          </mxGeometry>
        </mxCell>
        <mxCell id="CppdhaFHmqjqEvkJu7Ff-64" value="Se elaboreaza rankingul final Comitetul special" style="whiteSpace=wrap;html=1;fillColor=#fff2cc;strokeColor=#d6b656;rounded=1;" parent="1" vertex="1">
          <mxGeometry x="960" y="410" width="120" height="60" as="geometry" />
        </mxCell>
        <mxCell id="CppdhaFHmqjqEvkJu7Ff-82" value="" style="edgeStyle=orthogonalEdgeStyle;rounded=0;orthogonalLoop=1;jettySize=auto;html=1;" parent="1" source="CppdhaFHmqjqEvkJu7Ff-67" target="CppdhaFHmqjqEvkJu7Ff-39" edge="1">
          <mxGeometry relative="1" as="geometry" />
        </mxCell>
        <mxCell id="CppdhaFHmqjqEvkJu7Ff-67" value="Comitetul de numiri prezinta o list pt Comitetul de Numiri" style="whiteSpace=wrap;html=1;fillColor=#e1d5e7;strokeColor=#9673a6;rounded=1;" parent="1" vertex="1">
          <mxGeometry x="730" y="200" width="120" height="60" as="geometry" />
        </mxCell>
        <mxCell id="CppdhaFHmqjqEvkJu7Ff-71" value="" style="edgeStyle=orthogonalEdgeStyle;rounded=0;orthogonalLoop=1;jettySize=auto;html=1;" parent="1" source="CppdhaFHmqjqEvkJu7Ff-69" target="CppdhaFHmqjqEvkJu7Ff-24" edge="1">
          <mxGeometry relative="1" as="geometry" />
        </mxCell>
        <mxCell id="CppdhaFHmqjqEvkJu7Ff-72" style="edgeStyle=orthogonalEdgeStyle;rounded=0;orthogonalLoop=1;jettySize=auto;html=1;entryX=0;entryY=0.5;entryDx=0;entryDy=0;" parent="1" source="CppdhaFHmqjqEvkJu7Ff-69" target="CppdhaFHmqjqEvkJu7Ff-30" edge="1">
          <mxGeometry x="0.5" y="-40" relative="1" as="geometry">
            <Array as="points">
              <mxPoint x="450" y="130" />
            </Array>
            <mxPoint as="offset" />
          </mxGeometry>
        </mxCell>
        <mxCell id="CppdhaFHmqjqEvkJu7Ff-69" value="Versiune pentru intreaga biserica" style="whiteSpace=wrap;html=1;fillColor=#f8cecc;strokeColor=#b85450;rounded=1;" parent="1" vertex="1">
          <mxGeometry x="360" y="20" width="120" height="60" as="geometry" />
        </mxCell>
        <mxCell id="CppdhaFHmqjqEvkJu7Ff-76" value="" style="group" parent="1" vertex="1" connectable="0">
          <mxGeometry x="360" y="500" width="350" height="320" as="geometry" />
        </mxCell>
        <mxCell id="CppdhaFHmqjqEvkJu7Ff-4" value="Primeste intrebare pentru votare" style="whiteSpace=wrap;html=1;rounded=1;fillColor=#fff2cc;strokeColor=#d6b656;" parent="CppdhaFHmqjqEvkJu7Ff-76" vertex="1">
          <mxGeometry x="20" y="40" width="120" height="60" as="geometry" />
        </mxCell>
        <mxCell id="CppdhaFHmqjqEvkJu7Ff-6" value="Voteaza Da/Nu&lt;br&gt;Timp alocat de 1 min" style="whiteSpace=wrap;html=1;fillColor=#d5e8d4;strokeColor=#82b366;rounded=1;gradientColor=none;" parent="CppdhaFHmqjqEvkJu7Ff-76" vertex="1">
          <mxGeometry x="200" y="40" width="120" height="60" as="geometry" />
        </mxCell>
        <mxCell id="CppdhaFHmqjqEvkJu7Ff-62" value="" style="edgeStyle=orthogonalEdgeStyle;rounded=0;orthogonalLoop=1;jettySize=auto;html=1;" parent="CppdhaFHmqjqEvkJu7Ff-76" source="CppdhaFHmqjqEvkJu7Ff-4" target="CppdhaFHmqjqEvkJu7Ff-6" edge="1">
          <mxGeometry relative="1" as="geometry" />
        </mxCell>
        <mxCell id="CppdhaFHmqjqEvkJu7Ff-8" value="Nu voteaza timp de 1 min si conteaza ca ambtinere" style="whiteSpace=wrap;html=1;fillColor=#fff2cc;strokeColor=#d6b656;rounded=1;" parent="CppdhaFHmqjqEvkJu7Ff-76" vertex="1">
          <mxGeometry x="20" y="140" width="120" height="60" as="geometry" />
        </mxCell>
        <mxCell id="CppdhaFHmqjqEvkJu7Ff-61" value="" style="edgeStyle=orthogonalEdgeStyle;rounded=0;orthogonalLoop=1;jettySize=auto;html=1;" parent="CppdhaFHmqjqEvkJu7Ff-76" source="CppdhaFHmqjqEvkJu7Ff-4" target="CppdhaFHmqjqEvkJu7Ff-8" edge="1">
          <mxGeometry relative="1" as="geometry" />
        </mxCell>
        <mxCell id="CppdhaFHmqjqEvkJu7Ff-10" value="Apare rezultatul votului" style="whiteSpace=wrap;html=1;fillColor=#e1d5e7;strokeColor=#9673a6;rounded=1;" parent="CppdhaFHmqjqEvkJu7Ff-76" vertex="1">
          <mxGeometry x="200" y="240" width="120" height="60" as="geometry" />
        </mxCell>
        <mxCell id="CppdhaFHmqjqEvkJu7Ff-19" value="Se blocheaza optiunile de vot dupa 1 min" style="whiteSpace=wrap;html=1;fillColor=#f8cecc;strokeColor=#b85450;rounded=1;" parent="CppdhaFHmqjqEvkJu7Ff-76" vertex="1">
          <mxGeometry x="200" y="140" width="120" height="60" as="geometry" />
        </mxCell>
        <mxCell id="CppdhaFHmqjqEvkJu7Ff-22" style="edgeStyle=orthogonalEdgeStyle;rounded=0;orthogonalLoop=1;jettySize=auto;html=1;entryX=0.5;entryY=0;entryDx=0;entryDy=0;" parent="CppdhaFHmqjqEvkJu7Ff-76" source="CppdhaFHmqjqEvkJu7Ff-6" target="CppdhaFHmqjqEvkJu7Ff-19" edge="1">
          <mxGeometry relative="1" as="geometry" />
        </mxCell>
        <mxCell id="CppdhaFHmqjqEvkJu7Ff-23" style="edgeStyle=orthogonalEdgeStyle;rounded=0;orthogonalLoop=1;jettySize=auto;html=1;entryX=0;entryY=0.5;entryDx=0;entryDy=0;" parent="CppdhaFHmqjqEvkJu7Ff-76" source="CppdhaFHmqjqEvkJu7Ff-8" target="CppdhaFHmqjqEvkJu7Ff-19" edge="1">
          <mxGeometry relative="1" as="geometry" />
        </mxCell>
        <mxCell id="CppdhaFHmqjqEvkJu7Ff-11" value="" style="edgeStyle=orthogonalEdgeStyle;rounded=0;orthogonalLoop=1;jettySize=auto;html=1;startArrow=none;" parent="CppdhaFHmqjqEvkJu7Ff-76" source="CppdhaFHmqjqEvkJu7Ff-19" target="CppdhaFHmqjqEvkJu7Ff-10" edge="1">
          <mxGeometry relative="1" as="geometry" />
        </mxCell>
        <mxCell id="CppdhaFHmqjqEvkJu7Ff-73" value="Proces de Votare" style="swimlane;whiteSpace=wrap;html=1;" parent="CppdhaFHmqjqEvkJu7Ff-76" vertex="1">
          <mxGeometry width="350" height="320" as="geometry" />
        </mxCell>
        <mxCell id="CppdhaFHmqjqEvkJu7Ff-81" value="" style="edgeStyle=orthogonalEdgeStyle;rounded=0;orthogonalLoop=1;jettySize=auto;html=1;" parent="1" source="CppdhaFHmqjqEvkJu7Ff-77" target="CppdhaFHmqjqEvkJu7Ff-67" edge="1">
          <mxGeometry relative="1" as="geometry" />
        </mxCell>
        <mxCell id="CppdhaFHmqjqEvkJu7Ff-77" value="Versiune prentru Comitetul Special" style="whiteSpace=wrap;html=1;fillColor=#f8cecc;strokeColor=#b85450;rounded=1;" parent="1" vertex="1">
          <mxGeometry x="570" y="200" width="120" height="60" as="geometry" />
        </mxCell>
        <mxCell id="BHnLyTxGF9Abz34kXASD-2" value="" style="edgeStyle=orthogonalEdgeStyle;rounded=0;orthogonalLoop=1;jettySize=auto;html=1;" edge="1" parent="1" source="CppdhaFHmqjqEvkJu7Ff-79" target="BHnLyTxGF9Abz34kXASD-1">
          <mxGeometry relative="1" as="geometry" />
        </mxCell>
        <mxCell id="CppdhaFHmqjqEvkJu7Ff-79" value="Versiune pentru Comitetul de Numiri" style="whiteSpace=wrap;html=1;fillColor=#f8cecc;strokeColor=#b85450;rounded=1;" parent="1" vertex="1">
          <mxGeometry x="360" y="310" width="120" height="60" as="geometry" />
        </mxCell>
        <mxCell id="BHnLyTxGF9Abz34kXASD-8" value="" style="edgeStyle=orthogonalEdgeStyle;rounded=0;orthogonalLoop=1;jettySize=auto;html=1;" edge="1" parent="1" source="BHnLyTxGF9Abz34kXASD-1" target="BHnLyTxGF9Abz34kXASD-7">
          <mxGeometry relative="1" as="geometry" />
        </mxCell>
        <mxCell id="BHnLyTxGF9Abz34kXASD-1" value="Se voteaza si propune cate o persoana pentru fiecare departament" style="whiteSpace=wrap;html=1;fillColor=#f8cecc;strokeColor=#b85450;rounded=1;" vertex="1" parent="1">
          <mxGeometry x="560" y="310" width="120" height="60" as="geometry" />
        </mxCell>
        <mxCell id="BHnLyTxGF9Abz34kXASD-5" style="edgeStyle=orthogonalEdgeStyle;rounded=0;orthogonalLoop=1;jettySize=auto;html=1;exitX=0.25;exitY=0;exitDx=0;exitDy=0;entryX=0.5;entryY=1;entryDx=0;entryDy=0;" edge="1" parent="1" source="CppdhaFHmqjqEvkJu7Ff-73" target="CppdhaFHmqjqEvkJu7Ff-79">
          <mxGeometry relative="1" as="geometry" />
        </mxCell>
        <mxCell id="BHnLyTxGF9Abz34kXASD-10" style="edgeStyle=orthogonalEdgeStyle;rounded=0;orthogonalLoop=1;jettySize=auto;html=1;" edge="1" parent="1" source="BHnLyTxGF9Abz34kXASD-7" target="CppdhaFHmqjqEvkJu7Ff-73">
          <mxGeometry relative="1" as="geometry" />
        </mxCell>
        <mxCell id="BHnLyTxGF9Abz34kXASD-7" value="Se da timp de discutie si se fac propuneri de vot" style="whiteSpace=wrap;html=1;fillColor=#f8cecc;strokeColor=#b85450;rounded=1;" vertex="1" parent="1">
          <mxGeometry x="560" y="390" width="120" height="60" as="geometry" />
        </mxCell>
        <mxCell id="BHnLyTxGF9Abz34kXASD-11" style="edgeStyle=orthogonalEdgeStyle;rounded=0;orthogonalLoop=1;jettySize=auto;html=1;" edge="1" parent="1" source="CppdhaFHmqjqEvkJu7Ff-73">
          <mxGeometry relative="1" as="geometry">
            <mxPoint x="570" y="250" as="targetPoint" />
            <Array as="points">
              <mxPoint x="500" y="250" />
            </Array>
          </mxGeometry>
        </mxCell>
        <mxCell id="BHnLyTxGF9Abz34kXASD-12" style="edgeStyle=orthogonalEdgeStyle;rounded=0;orthogonalLoop=1;jettySize=auto;html=1;exitX=0;exitY=0.5;exitDx=0;exitDy=0;entryX=0;entryY=0.75;entryDx=0;entryDy=0;" edge="1" parent="1" source="CppdhaFHmqjqEvkJu7Ff-73" target="e8ArRw_OcwM4HBcJv57Q-7">
          <mxGeometry relative="1" as="geometry" />
        </mxCell>
      </root>
    </mxGraphModel>
  </diagram>
</mxfile>
